<svg width="51" height="46" viewBox="0 0 51 46" fill="none" xmlns="http://www.w3.org/2000/svg">
<path d="M49.1908 14.7923H28.4825L49.0275 12.7695L50.6167 12.6126L50.4272 11.1839L49.1325 1.39827L48.9776 0.237615L47.6854 0.146224L45.8069 0.0144702L45.6004 0L45.3973 0.0335097L1.45971 7.31808L0 7.56027L0.175165 8.88847L0.517032 11.4756V13.0224V22.6145V23.9511L0.920673 23.9732V35.4092V36.5577L2.16714 36.8014L47.0009 45.5718L47.6321 45.6952L48.1788 45.3844L50.0328 44.3312L50.7724 43.9123V43.1263V16.2172V14.7923H49.1908ZM45.6825 1.43483L47.5611 1.56734L48.7204 10.321L47.2488 8.38963L41.5022 2.12787L45.6825 1.43483ZM34.3391 3.31595L42.2079 12.0079L35.0245 12.7154L27.8901 4.38521L34.3391 3.31595ZM22.0513 5.35319L28.5603 13.3521L22.7147 13.9279L16.7524 6.23206L22.0513 5.35319ZM11.9129 7.03325L17.398 14.4511L12.5484 14.9278L7.48131 7.76818L11.9129 7.03325ZM7.29176 19.0998L4.94777 16.3573L5.02901 16.2172H7.78003H9.0231L7.29176 19.0998ZM8.19213 21.5102C8.19213 21.9291 7.85957 22.2513 7.45254 22.2307C7.04721 22.2101 6.72227 21.859 6.72227 21.447C6.72227 21.035 7.04806 20.7121 7.45254 20.7273C7.85957 20.741 8.19213 21.0921 8.19213 21.5102ZM2.12906 11.6111L1.74572 8.7194L3.40514 8.44447L8.10497 15.3665L7.13522 15.4617L4.79461 15.6925L4.29704 14.9309L2.12906 11.6111ZM3.78593 15.841C3.78593 16.2408 3.48214 16.566 3.10981 16.5698C2.74002 16.5714 2.44385 16.2545 2.44385 15.8608C2.44385 15.4655 2.74086 15.1411 3.10981 15.132C3.48129 15.1236 3.78593 15.4412 3.78593 15.841ZM3.10981 20.5727C3.48129 20.5864 3.78593 20.9208 3.78593 21.3206C3.78593 21.7204 3.48214 22.0281 3.10981 22.0083C2.74002 21.99 2.44385 21.6557 2.44385 21.262C2.44385 20.8675 2.74002 20.5598 3.10981 20.5727ZM49.1908 32.3423L47.611 32.7094L10.8695 28.6113V31.7559L47.611 36.9918L49.1908 36.3848V37.4243L47.611 38.0443L2.50223 31.289V30.567L10.0809 31.6439V28.5229L2.50223 27.6776V26.9556L47.611 31.6576L49.1908 31.3012V32.3423ZM49.1908 26.0706L47.611 26.3075L2.50223 23.3449V22.642L10.7214 23.1141L9.73899 21.9641L13.3523 16.2172H17.6646L13.0333 23.2109L17.8795 23.4919L22.9618 16.2172H28.7854L23.1886 23.8003L29.0317 24.1392L35.225 16.2172H42.3823L35.4899 24.5147L42.67 24.9313L47.6939 18.9239L49.1908 16.6338V26.0706Z" fill="black"/>
</svg>
