<svg width="58" height="36" viewBox="0 0 58 36" fill="none" xmlns="http://www.w3.org/2000/svg">
<path d="M56.0415 11.4868C57.8763 9.80534 58.2542 8.15323 57.8531 6.72532C57.4055 5.13436 55.8898 3.79457 53.5388 3.39653C51.4895 3.04885 49.5823 3.38694 47.7359 4.26155C46.7528 3.74542 45.7137 3.26945 44.6242 2.83664C43.4681 1.74982 41.9804 0.916572 40.0471 0.395643C38.105 -0.129483 36.1997 -0.1103 34.569 0.334498C32.7661 0.117494 30.9063 0 29.0019 0C27.0976 0 25.2377 0.116894 23.4349 0.335097C21.8051 -0.109101 19.8988 -0.128884 17.9568 0.396242C16.0225 0.917171 14.5338 1.75042 13.3767 2.83724C12.2883 3.27065 11.2472 3.74602 10.2641 4.26275C8.4187 3.38754 6.50953 3.04945 4.46117 3.39713C2.11217 3.79517 0.5945 5.13436 0.146933 6.72592C-0.2523 8.15383 0.125667 9.80594 1.95943 11.4874C0.6989 13.5022 0 15.6914 0 17.9832C0 27.9162 12.9862 35.9675 29.0019 35.9675C45.0157 35.9675 58 27.9162 58 17.9832C58 15.6914 57.3011 13.5022 56.0415 11.4868ZM29.0019 34.4695C14.3424 34.4695 2.41667 27.0739 2.41667 17.9832C2.41667 16.1716 2.89807 14.4284 3.7729 12.7966C7.31187 14.824 15.1573 17.8645 15.4667 17.9844C15.7257 17.8099 24.7467 11.783 26.7593 8.81084C28.9082 5.63551 28.1087 3.2083 26.1019 1.63233C26.0874 1.62154 26.071 1.61314 26.0575 1.60235C27.0241 1.53581 28.0063 1.49865 29.0019 1.49865C29.9976 1.49865 30.9797 1.53581 31.9464 1.60235C31.9329 1.61314 31.9164 1.62154 31.9019 1.63233C29.8951 3.2083 29.0967 5.63551 31.2446 8.81084C33.2572 11.783 42.2762 17.8099 42.5372 17.9844C42.8465 17.8645 50.691 14.8246 54.2281 12.7966C55.1029 14.429 55.5833 16.1716 55.5833 17.9832C55.5833 27.0739 43.6595 34.4695 29.0019 34.4695Z" fill="black"/>
<path d="M44.1064 18.8045C40.7569 18.4076 35.8104 18 29.4324 18C23.0562 18 18.1079 18.4076 14.7613 18.8045C13.4563 18.9603 13 19.5622 13 20.0436C13 24.4022 18.424 28.7909 29.4333 28.7909C40.4427 28.7909 45.8686 24.4028 45.8686 20.0436C45.8676 19.5622 45.4085 18.9603 44.1064 18.8045ZM42.9415 21.0752C42.8903 21.3396 42.8091 21.6597 42.6863 22.0062C42.5481 22.3892 42.4331 22.5673 41.4625 22.4953C39.6056 22.3581 19.2601 22.3581 17.4032 22.4953C16.4336 22.5667 16.3176 22.3886 16.1803 22.0062C16.0576 21.6597 15.9764 21.3402 15.9242 21.0752C15.8372 20.6292 15.9135 20.3139 17.1654 20.1844C19.2872 19.9632 23.7754 19.5766 29.4324 19.5766C35.0893 19.5766 39.5775 19.9632 41.6994 20.1844C42.9522 20.3139 43.0276 20.6286 42.9415 21.0752Z" fill="black"/>
</svg>
